<?xml version="1.0" standalone="no"?>
<!DOCTYPE svg PUBLIC "-//W3C//DTD SVG 20010904//EN"
 "http://www.w3.org/TR/2001/REC-SVG-20010904/DTD/svg10.dtd">
<svg version="1.0" xmlns="http://www.w3.org/2000/svg"
 width="152.000000pt" height="191.000000pt" viewBox="0 0 152.000000 191.000000"
 preserveAspectRatio="xMidYMid meet">

<g transform="translate(0.000000,191.000000) scale(0.100000,-0.100000)"
fill="#000000" stroke="none">
<path d="M682 1750 c-97 -26 -152 -51 -229 -106 -126 -90 -237 -263 -284 -444
-33 -123 -32 -339 0 -460 122 -455 518 -680 872 -494 439 231 523 954 154
1330 -100 102 -213 160 -345 179 -25 3 -56 8 -70 10 -14 2 -58 -5 -98 -15z
m58 -150 l0 -110 -72 0 c-118 0 -108 51 -108 -552 l0 -518 26 -10 c14 -6 52
-10 85 -10 l59 0 0 -85 0 -85 -27 6 c-101 22 -194 70 -272 140 -65 59 -143
177 -181 276 -109 282 -61 622 120 845 52 64 150 142 214 168 33 14 129 43
149 44 4 1 7 -48 7 -109z m204 80 c120 -41 217 -118 295 -235 255 -381 145
-960 -219 -1154 -57 -31 -162 -61 -212 -61 l-28 0 0 305 0 305 120 0 120 0 0
90 0 90 -120 0 -120 0 0 145 0 145 180 0 c205 0 200 -2 200 90 0 92 5 90 -195
90 l-175 0 0 111 0 112 49 -7 c27 -4 74 -15 105 -26z"/>
</g>
</svg>
