<?xml version="1.0" standalone="no"?>
<!DOCTYPE svg PUBLIC "-//W3C//DTD SVG 20010904//EN"
 "http://www.w3.org/TR/2001/REC-SVG-20010904/DTD/svg10.dtd">
<svg version="1.0" xmlns="http://www.w3.org/2000/svg"
 width="205.000000pt" height="246.000000pt" viewBox="0 0 205.000000 246.000000"
 preserveAspectRatio="xMidYMid meet">

<g transform="translate(0.000000,246.000000) scale(0.100000,-0.100000)"
fill="#000000" stroke="none">
<path d="M232 2439 c-12 -5 -27 -20 -32 -34 -6 -16 -10 -168 -10 -368 0 -330
-1 -344 -22 -397 -19 -47 -22 -74 -23 -190 0 -117 3 -143 23 -195 37 -98 37
-94 6 -105 -76 -29 -172 -84 -167 -96 3 -9 21 -4 66 21 34 19 81 41 104 49 41
14 42 14 58 -11 9 -13 15 -26 13 -27 -2 -1 -25 -11 -53 -20 -41 -15 -149 -69
-164 -82 -1 -1 0 -7 3 -12 3 -6 38 6 80 28 41 22 93 44 115 51 38 11 42 10 60
-12 l19 -24 -75 -27 c-41 -15 -96 -39 -122 -54 -57 -33 -54 -31 -47 -42 3 -5
38 7 78 28 40 21 99 46 131 55 58 17 59 16 81 -4 l22 -21 -23 -71 c-49 -147
-26 -321 61 -452 36 -54 104 -124 141 -145 19 -10 19 -11 -3 -35 -50 -53 -48
-128 6 -180 38 -36 76 -48 151 -48 53 0 76 6 123 30 l58 30 58 -30 c98 -51
224 -39 285 26 44 48 42 122 -5 172 l-22 23 25 17 c13 9 48 40 77 70 60 61 51
62 157 -17 90 -68 157 -98 231 -106 189 -20 330 131 350 373 5 71 4 81 -18
113 -41 61 -134 64 -171 6 -8 -11 -19 -61 -25 -109 -13 -100 -36 -148 -81
-167 -40 -16 -63 -7 -156 62 -43 33 -96 68 -117 79 -21 11 -36 24 -32 30 3 6
6 50 5 99 0 66 -6 107 -24 159 l-23 71 22 21 c22 20 24 21 80 4 32 -9 90 -33
128 -53 39 -20 74 -38 79 -40 4 -2 7 2 7 10 0 17 -83 63 -175 97 l-73 26 19
24 c19 23 22 23 62 11 23 -7 72 -28 109 -46 75 -38 81 -40 86 -26 3 10 -146
87 -190 98 -33 7 -33 7 -12 39 15 23 17 23 57 9 23 -8 70 -30 104 -49 44 -24
63 -30 66 -21 5 12 -96 70 -167 96 -31 11 -31 7 6 105 20 52 23 77 22 195 0
113 -4 145 -22 194 -21 57 -22 74 -22 403 0 225 -4 351 -11 364 -14 27 -49 39
-74 26 -11 -5 -117 -80 -235 -166 l-215 -156 -166 0 -165 0 -215 156 c-117 86
-223 161 -234 166 -12 7 -29 7 -43 2z m186 -458 c-2 -4 -36 -38 -75 -75 l-73
-68 1 223 0 224 75 -148 c41 -82 74 -152 72 -156z m1090 -29 l-3 -110 -73 69
-73 68 73 146 73 146 3 -105 c1 -58 1 -154 0 -214z m-871 -454 c85 -40 150
-128 141 -190 -2 -12 -22 -37 -45 -54 -120 -91 -315 -57 -401 71 -44 66 -42
106 10 148 74 59 199 70 295 25z m745 9 c59 -25 98 -65 98 -102 0 -45 -54
-123 -111 -157 -63 -40 -152 -55 -224 -39 -64 14 -138 66 -143 99 -12 80 86
183 203 213 40 11 137 3 177 -14z m-427 -377 c41 -34 0 -90 -65 -90 -74 0
-109 67 -50 98 28 14 93 10 115 -8z"/>
<path d="M561 1444 c-28 -36 -27 -79 4 -109 29 -30 45 -31 79 -4 20 16 26 29
26 60 0 73 -68 106 -109 53z"/>
<path d="M1130 1450 c-31 -31 -27 -93 6 -119 34 -27 50 -26 79 4 31 30 32 73
4 109 -25 31 -61 34 -89 6z"/>
</g>
</svg>
